# xmcd
#
# Track frame offsets:
#	150
#	19842
#	61264
#	98928
#	121244
#	144810
#	168936
#
# Disc length: 2498 seconds
#
# Revision: 1
# Processed by: cddbd v1.5.2PL0 Copyright (c) Steve Scherf et al.
# Submitted via: audiograbber 1.82.02
#
DISCID=5109c007
DTITLE=Dixie Chicks - An Evening With The Dixie Chicks (DVD Rip) - Disc 2
DYEAR=2002
DGENRE=Country
TTITLE0=Lil' Jack Blade
TTITLE1=Godspeed
TTITLE2=Top Of The World
TTITLE3=Wide Open Spaces
TTITLE4=Cowboy Take Me Away
TTITLE5=Goodbye Earl
TTITLE6=Sin Wagon
EXTD=dream`master
EXTT0=
EXTT1=
EXTT2=
EXTT3=
EXTT4=
EXTT5=
EXTT6=
PLAYORDER=
